<svg xmlns="http://www.w3.org/2000/svg" viewBox="0 0 64 64" role="img" aria-label="RideShare Ledger">
  <defs>
    <linearGradient id="bg" x1="8" y1="5" x2="56" y2="59" gradientUnits="userSpaceOnUse">
      <stop stop-color="#164c34"/>
      <stop offset="1" stop-color="#08271a"/>
    </linearGradient>
    <linearGradient id="line" x1="16" y1="16" x2="49" y2="49" gradientUnits="userSpaceOnUse">
      <stop stop-color="#9af3be"/>
      <stop offset="1" stop-color="#42d98a"/>
    </linearGradient>
  </defs>
  <rect x="2" y="2" width="60" height="60" rx="17" fill="url(#bg)" stroke="#2fa96c" stroke-width="3"/>
  <path d="M14 39v-9l6-14h24l6 14v9c0 3-2 5-5 5H19c-3 0-5-2-5-5Z" fill="none" stroke="url(#line)" stroke-width="4" stroke-linejoin="round"/>
  <path d="M18 30h28M23 17l-4 13m22-13 4 13" fill="none" stroke="#d9ffe8" stroke-width="3" stroke-linecap="round"/>
  <circle cx="21" cy="37" r="3" fill="#d9ffe8"/>
  <circle cx="43" cy="37" r="3" fill="#d9ffe8"/>
  <path d="M32 23v10m-5-5h10" fill="none" stroke="#d9ffe8" stroke-width="3.5" stroke-linecap="round"/>
  <path d="M20 44v4m24-4v4" fill="none" stroke="#42d98a" stroke-width="4" stroke-linecap="round"/>
</svg>
